<svg xmlns="http://www.w3.org/2000/svg" viewBox="0 0 971.95 315.75"><defs><style>.cls-1{fill:#fff;}</style></defs><g id="Layer_2" data-name="Layer 2"><g id="Layer_1-2" data-name="Layer 1"><path class="cls-1" d="M259.83,40.14c-26.64-24-58-37.29-93.76-39.76A152.08,152.08,0,0,0,90.73,14.26a154.68,154.68,0,0,0-58.32,46.5A156.89,156.89,0,0,0,.06,142.08c-.24,2.3.23,3.31,2.4,4.21q39.53,16.35,79,32.92a4,4,0,0,0,4.17-.37,41.65,41.65,0,0,1,23-6.45,3.86,3.86,0,0,0,3.71-1.89c11.47-16.85,23-33.65,34.47-50.52a8.77,8.77,0,0,0,1.46-4.4,63.77,63.77,0,0,1,5-22.32c11.24-26.63,41.35-41.36,69.21-33.8a59.77,59.77,0,0,1-14.52,117.4,6.63,6.63,0,0,0-3.5,1.12q-25.08,17.93-50,36a4.27,4.27,0,0,0-1.41,2.66c-.47,3.23-.47,6.54-1.06,9.74-3.67,19.65-22,35.08-41.94,35.45a44.42,44.42,0,0,1-44.37-33.64,4.36,4.36,0,0,0-2.95-3.3q-19.38-8-38.72-16.1L5.65,201.18a4.1,4.1,0,0,0-.06.92c.17.7.35,1.4.56,2.08A154.79,154.79,0,0,0,34.59,257.6c28.94,35,66.14,54.44,111.47,57.75a146.62,146.62,0,0,0,60.41-8.22c38.2-13.64,67.26-38.28,86.58-74,18.57-34.31,23.51-70.85,15.44-108.95C301.45,91,285.07,62.88,259.83,40.14Z"/><path class="cls-1" d="M951.24,100.1a2.79,2.79,0,0,0-3,2q-15.36,34.74-30.83,69.43c-1.72,3.86-3.47,7.7-5.38,11.93-.57-1.16-1-1.91-1.32-2.69q-18.08-39.16-36.11-78.36c-.77-1.67-1.64-2.37-3.58-2.31-5.11.16-10.23.06-15.35.06h-4.72v115h22.68V146.44a4.11,4.11,0,0,1,1.45,1.84q14.21,30.78,28.35,61.61a3.07,3.07,0,0,0,3.4,2.15,80.32,80.32,0,0,1,8.64,0c1.93.12,2.76-.66,3.54-2.35q14.24-30.91,28.62-61.75c.37-.8.79-1.58,1.18-2.37l.52.18v69.42H972V100.27c-.91,0-1.69-.12-2.47-.12C963.4,100.14,957.32,100.21,951.24,100.1Z"/><path class="cls-1" d="M810.84,175.31q-13.94-36.48-27.84-73a2.93,2.93,0,0,0-3.28-2.26q-9.47.19-19,0c-2,0-2.88.57-3.58,2.47q-17.55,47.54-35.24,95c-2.17,5.82-4.32,11.64-6.5,17.52a4.7,4.7,0,0,0,.9.24c7.43,0,14.87.07,22.31,0a2.92,2.92,0,0,0,2.08-1.61q3.32-9.26,6.33-18.6a2.5,2.5,0,0,1,2.85-2.07q20.39.12,40.78,0a2.36,2.36,0,0,1,2.66,2c1.63,5,3.41,10,5.14,14.94,1.88,5.42,1.88,5.42,7.65,5.42H826c-.43-1.28-.68-2.11-1-2.91Q817.95,193.89,810.84,175.31Zm-56.53-1.47c5.18-15.36,10.29-30.52,15.41-45.67l.53,0c5.24,15.16,10.47,30.32,15.78,45.7Z"/><path class="cls-1" d="M617.64,215.18h76.42V194.66h-52.8c-.06-1.1-.14-1.89-.14-2.67,0-7.28.07-14.56-.06-21.84,0-2.2.62-2.84,2.83-2.82,13.44.09,26.88,0,40.31,0,.86,0,1.71-.09,2.65-.13V146.76h-45.5V120.57h52.76V100.29H617.64Z"/><path class="cls-1" d="M462.06,154.16c-6.62-3-13.48-5.39-20.26-8-5.58-2.13-11.49-3.57-16.32-7.33a10.48,10.48,0,0,1-1.33-15.29c3-3.32,7-4.46,11.17-4.81,9.61-.78,18.54,1.58,27,6.11,1.37.74,2.72,1.51,4.19,2.32l10-17.81c-2-1.24-3.84-2.51-5.8-3.53-11.57-6-24-8.17-36.9-7.47A47.18,47.18,0,0,0,412.92,104c-10.35,5.8-15.69,14.72-16.19,26.53-.52,12.13,4.37,21.56,15,27.46,5.62,3.13,11.76,5.34,17.74,7.78,6.2,2.52,12.66,4.46,18.69,7.33,6.42,3,8.14,9.52,4.6,15.05-1.9,3-4.82,4.59-8.13,5.57-6.42,1.89-12.94,1.69-19.48.74a74.55,74.55,0,0,1-22.8-7.45c-2.19,5.86-4.17,11.51-6.42,17-.87,2.15-.55,3.18,1.55,4.26a81.55,81.55,0,0,0,40,9c9.9-.27,19.19-2.57,27.76-7.9C481.81,199.08,488.53,166,462.06,154.16Z"/><path class="cls-1" d="M497.64,120.73h34.54v94.46h23.89V120.65h34.41V100.28H497.64Z"/><path class="cls-1" d="M246.51,117.29c.16-21.57-17.26-39.56-38.48-39.75-21.78-.2-39.74,17.29-39.87,38.83-.14,22.26,17,40.16,38.59,40.3A39.24,39.24,0,0,0,246.51,117.29Zm-68.75-.5A29.61,29.61,0,1,1,207.13,147C190.93,146.94,177.69,133.32,177.76,116.79Z"/><path class="cls-1" d="M104.53,241.18c-4.34-.55-8.51-2.54-12.68-4.09S83.5,233.68,79,231.82a32.71,32.71,0,0,0,43,15.68,33.49,33.49,0,0,0,16.44-44.85c-8.28-17.57-27.94-22.44-40.91-16.93.57.28,1,.55,1.52.76,5.82,2.44,11.65,4.84,17.45,7.31a24.3,24.3,0,0,1,13.87,14.72C136.5,225.6,122.53,243.47,104.53,241.18Z"/></g></g></svg>